<svg width="632" height="865" viewBox="0 0 632 865" fill="none" xmlns="http://www.w3.org/2000/svg">
<g filter="url(#filter0_d_24_2706)">
<path d="M151.671 635.654L32.951 825.879C32.5856 826.465 31.9443 826.82 31.2543 826.82H15.1682C14.8197 826.82 14.4773 826.729 14.1748 826.556L8.66437 823.403C8.51003 823.314 8.36815 823.206 8.24249 823.08L4.58477 819.417C4.21032 819.042 4 818.534 4 818.004V811.73V805.197C4 804.826 4.10346 804.462 4.29879 804.146L130.374 600.193C130.617 599.799 130.989 599.502 131.427 599.352L200.333 575.768C200.622 575.669 200.885 575.506 201.101 575.289L234.755 541.587C235.13 541.211 235.639 541 236.17 541H392.284C392.815 541 393.324 541.211 393.7 541.587L427.315 575.251C427.556 575.492 427.853 575.667 428.18 575.761L464.909 586.27C472 588.341 486.714 592.483 488.841 592.483C490.896 592.483 498.635 596.903 502.62 599.337C502.886 599.499 503.108 599.722 503.272 599.987L627.702 801.483C627.897 801.799 628 802.163 628 802.534V815.285C628 815.848 627.763 816.385 627.346 816.764L618.822 824.524C618.454 824.859 617.974 825.045 617.476 825.045H599.86C599.17 825.045 598.528 824.689 598.163 824.103L476.876 629.588C476.592 629.133 476.137 628.811 475.613 628.694L447.681 622.478C446.23 622.155 444.946 623.472 445.306 624.915L447.182 632.427L448.955 648.404V685.685L447.2 702.375C447.188 702.492 447.165 702.607 447.133 702.72L435.718 742.291C435.679 742.426 435.626 742.557 435.559 742.681L416.253 778.712C416.191 778.829 416.117 778.939 416.032 779.041L394.995 804.497C394.923 804.585 394.843 804.667 394.756 804.741L363.864 831.258L349.682 841.022L319.985 856.767C319.696 856.92 319.375 857 319.048 857H313.791C313.495 857 313.202 856.934 312.934 856.807L296.5 849.011L272.568 834.809L249.523 817.056L230.153 798.54C230.066 798.457 229.987 798.367 229.917 798.27L215.841 778.888L200.863 753.301C200.803 753.198 200.752 753.09 200.711 752.978L191.023 726.517L185.705 710.539L183.045 696.337L180.413 680.523C180.395 680.414 180.386 680.304 180.386 680.194V659.056V645.013C180.386 644.907 180.395 644.802 180.411 644.697L183.381 626.108C183.625 624.583 182.12 623.368 180.681 623.929L152.642 634.849C152.24 635.005 151.899 635.288 151.671 635.654Z" fill="#1A506C"/>
<path d="M560.948 467H70.493C70.1518 467 69.8163 467.087 69.5183 467.254L64.053 470.304C63.8597 470.412 63.6857 470.551 63.538 470.716L57.7222 477.207C57.6075 477.335 57.5098 477.477 57.4315 477.63L54.2197 483.904C54.0753 484.186 54 484.499 54 484.816V489.918C54 490.235 54.0753 490.547 54.2197 490.829L57.4363 497.112C57.5115 497.259 57.6045 497.396 57.7134 497.52L62.5373 503.017C62.758 503.268 63.0384 503.46 63.3527 503.575L69.6396 505.878C69.8599 505.959 70.0928 506 70.3274 506H555.79C556.094 506 556.395 505.931 556.668 505.797L561.577 503.4L566.659 500.091C566.819 499.986 566.964 499.859 567.089 499.713L571.186 494.912C571.287 494.793 571.374 494.663 571.445 494.525L573.78 489.963C573.925 489.68 574 489.368 574 489.051V484.62C574 484.43 573.973 484.241 573.92 484.058L572.306 478.542C572.252 478.359 572.173 478.185 572.071 478.025L568.003 471.668C567.861 471.447 567.678 471.256 567.462 471.106L562.092 467.36C561.757 467.126 561.357 467 560.948 467Z" fill="#1A506C"/>
<path d="M384.858 120.529L379.221 144.543C378.927 145.798 377.539 146.45 376.384 145.877L342.458 129.015C341.609 128.593 341.173 127.634 341.413 126.717L346.334 107.967C346.363 107.856 346.402 107.747 346.45 107.643L359.822 78.4L372.37 57.0182L391.03 31.4051C391.138 31.2569 391.266 31.1243 391.41 31.011L412.704 14.2545L425.832 4.68497C426.041 4.5328 426.277 4.42251 426.528 4.36021L443.837 0.0590307C443.994 0.0198232 444.156 0 444.319 0H452.767C453.488 0 454.153 0.387752 454.508 1.01498L461.741 13.7962C461.911 14.0966 462 14.436 462 14.7812V30.0776C462 30.7648 461.647 31.404 461.066 31.7701L435.281 48.0021C435.168 48.0732 435.062 48.1555 434.966 48.2477L412.922 69.2828C412.777 69.4208 412.654 69.5796 412.557 69.754L399.259 93.5455L385.043 120.041C384.96 120.195 384.898 120.359 384.858 120.529Z" fill="#1A506C"/>
<path d="M239.797 116.998C243.199 124.844 249.407 139.767 251.48 146.76C251.909 148.207 253.782 149.144 255.114 148.434L282.551 133.824C283.393 133.376 283.802 132.395 283.526 131.481L277.812 112.538L269.855 93.8067L258.423 68.9642C258.383 68.8761 258.336 68.7911 258.283 68.7098L239.797 40.2893L231.068 29.885C230.994 29.7965 230.912 29.7147 230.824 29.6403L210.831 12.8133C210.693 12.6973 210.54 12.6005 210.377 12.5255L191.174 3.71901L183.854 0.320734C183.409 0.114148 182.904 0.0783222 182.434 0.22007L171.326 3.57246C171.007 3.66864 170.718 3.84283 170.484 4.07925L162.58 12.0539C162.208 12.4284 162 12.9345 162 13.4618V23.4312C162 23.9464 162.199 24.4418 162.555 24.814L170.702 33.326C170.794 33.4225 170.896 33.5094 171.005 33.5856L186.78 44.5461C186.859 44.6007 186.933 44.6609 187.003 44.7261L218.39 74.0071C218.516 74.1243 218.626 74.2572 218.718 74.4025L230.85 93.6382C230.921 93.7503 230.98 93.869 231.027 93.9928L239.797 116.998Z" fill="#1A506C"/>
<ellipse cx="316" cy="309" rx="124" ry="125" fill="#1A506C"/>
</g>
<defs>
<filter id="filter0_d_24_2706" x="0" y="0" width="632" height="865" filterUnits="userSpaceOnUse" color-interpolation-filters="sRGB">
<feFlood flood-opacity="0" result="BackgroundImageFix"/>
<feColorMatrix in="SourceAlpha" type="matrix" values="0 0 0 0 0 0 0 0 0 0 0 0 0 0 0 0 0 0 127 0" result="hardAlpha"/>
<feOffset dy="4"/>
<feGaussianBlur stdDeviation="2"/>
<feComposite in2="hardAlpha" operator="out"/>
<feColorMatrix type="matrix" values="0 0 0 0 0 0 0 0 0 0 0 0 0 0 0 0 0 0 0.25 0"/>
<feBlend mode="normal" in2="BackgroundImageFix" result="effect1_dropShadow_24_2706"/>
<feBlend mode="normal" in="SourceGraphic" in2="effect1_dropShadow_24_2706" result="shape"/>
</filter>
</defs>
</svg>
