<svg width="632" height="865" viewBox="0 0 632 865" fill="none" xmlns="http://www.w3.org/2000/svg">
<g filter="url(#filter0_d_24_2706)">
<path d="M152.023 635.09L32.3636 826.82H14.6364L8.43182 823.27L4 818.831V811.73V804.629L130.75 599.584L200.773 575.618L235.341 541H393.114L427.682 575.618L464.909 586.27C472 588.341 486.714 592.483 488.841 592.483C490.968 592.483 499.182 597.217 503.023 599.584L628 801.966V816.169L618.25 825.045H598.75L476.432 628.876L444.523 621.775L447.182 632.427L448.955 648.404V685.685L447.182 702.551L435.659 742.494L416.159 778.888L394.886 804.629L363.864 831.258L349.682 841.022L319.545 857H313.341L296.5 849.011L272.568 834.809L249.523 817.056L230.023 798.416L215.841 778.888L200.773 753.146L191.023 726.517L185.705 710.539L183.045 696.337L180.386 680.36V659.056V644.854L183.932 622.663L152.023 635.09Z" fill="black"/>
<path d="M561.577 467H69.9727L63.7611 470.467L57.5495 477.4L54 484.333V490.4L57.5495 497.333L62.8737 503.4L69.9727 506H556.253L561.577 503.4L566.901 499.933L571.338 494.733L574 489.533V484.333L572.225 478.267L567.788 471.333L561.577 467Z" fill="black"/>
<path d="M384.919 120.273L378.644 147L341 128.291L346.378 107.8L359.822 78.4L372.37 57.0182L391.193 31.1818L412.704 14.2545L426.148 4.45455L444.074 0H453.933L462 14.2545V31.1818L435.111 48.1091L412.704 69.4909L399.259 93.5455L384.919 120.273Z" fill="black"/>
<path d="M239.797 116.998C243.923 126.512 252.174 146.432 252.174 150L284 133.053L277.812 112.538L269.855 93.8067L258.362 68.8319L239.797 40.2893L230.957 29.7521L210.623 12.6386L191.174 3.71901L183.163 0L170.841 3.71901L162 12.6386V24.234L170.841 33.4711L186.898 44.6281L218.58 74.1836L230.957 93.8067L239.797 116.998Z" fill="black"/>
<ellipse cx="316" cy="309" rx="124" ry="125" fill="black"/>
</g>
<defs>
<filter id="filter0_d_24_2706" x="0" y="0" width="632" height="865" filterUnits="userSpaceOnUse" color-interpolation-filters="sRGB">
<feFlood flood-opacity="0" result="BackgroundImageFix"/>
<feColorMatrix in="SourceAlpha" type="matrix" values="0 0 0 0 0 0 0 0 0 0 0 0 0 0 0 0 0 0 127 0" result="hardAlpha"/>
<feOffset dy="4"/>
<feGaussianBlur stdDeviation="2"/>
<feComposite in2="hardAlpha" operator="out"/>
<feColorMatrix type="matrix" values="0 0 0 0 0 0 0 0 0 0 0 0 0 0 0 0 0 0 0.25 0"/>
<feBlend mode="normal" in2="BackgroundImageFix" result="effect1_dropShadow_24_2706"/>
<feBlend mode="normal" in="SourceGraphic" in2="effect1_dropShadow_24_2706" result="shape"/>
</filter>
</defs>
</svg>
